<svg xmlns="http://www.w3.org/2000/svg" viewBox="0 0 100.71 112.82"><defs><style>.cls-1{fill:#86c3d0;}.cls-2{fill:#fff;}.cls-3{font-size:12px;fill:#1d1d1b;font-family:MyriadPro-Regular, Myriad Pro;}.cls-4{letter-spacing:0em;}.cls-5{letter-spacing:-0.01em;}.cls-6{letter-spacing:-0.01em;}.cls-7{letter-spacing:-0.03em;}</style></defs><g id="API"><path class="cls-1" d="M50.35,13.37a43,43,0,1,0,43.05,43A43,43,0,0,0,50.35,13.37Z"/><path class="cls-2" d="M50.35,78.93a1,1,0,0,1-.33-.06l-.49-.21a28.6,28.6,0,0,1-17.3-26.37V41.06a.87.87,0,0,1,.87-.87c5.19,0,16.73-6.14,16.85-6.2a.83.83,0,0,1,.81,0c.12.06,11.65,6.2,16.85,6.2a.87.87,0,0,1,.87.87V52.29a28.6,28.6,0,0,1-17.3,26.37l-.49.21A1,1,0,0,1,50.35,78.93ZM34,41.88V52.29A26.88,26.88,0,0,0,50.21,77.07l.14.06.15-.06A26.87,26.87,0,0,0,66.74,52.29V41.88c-5.29-.49-14.33-5.08-16.39-6.15C48.3,36.8,39.26,41.39,34,41.88Z"/><path class="cls-2" d="M61,48.61H48.46a.43.43,0,0,1,0-.86H61a.43.43,0,0,1,0,.86Z"/><path class="cls-2" d="M43.47,48.61H39.68a.43.43,0,0,1,0-.86h3.79a.43.43,0,1,1,0,.86Z"/><path class="cls-2" d="M61,56.83H58.33a.43.43,0,0,1,0-.85H61a.43.43,0,1,1,0,.85Z"/><path class="cls-2" d="M53.35,56.83H39.68a.43.43,0,1,1,0-.85H53.35a.43.43,0,0,1,0,.85Z"/><path class="cls-2" d="M61,65.06H52.85a.43.43,0,1,1,0-.85H61a.43.43,0,1,1,0,.85Z"/><path class="cls-2" d="M47.86,65.06H39.68a.43.43,0,1,1,0-.85h8.18a.43.43,0,1,1,0,.85Z"/><path class="cls-2" d="M46,51.1a2.92,2.92,0,1,1,2.93-2.92A2.92,2.92,0,0,1,46,51.1Zm0-5A2.07,2.07,0,1,0,48,48.18,2.06,2.06,0,0,0,46,46.12Z"/><path class="cls-2" d="M55.84,59.33a2.93,2.93,0,1,1,2.92-2.92A2.92,2.92,0,0,1,55.84,59.33Zm0-5a2.07,2.07,0,1,0,2.07,2.07A2.07,2.07,0,0,0,55.84,54.34Z"/><path class="cls-2" d="M50.36,67.56a2.93,2.93,0,1,1,2.92-2.92A2.93,2.93,0,0,1,50.36,67.56Zm0-5a2.07,2.07,0,1,0,2.06,2.08A2.07,2.07,0,0,0,50.36,62.56Z"/></g><g id="HOSTING"><text class="cls-3" transform="translate(17.93 -4.98)"><tspan class="cls-4">R</tspan><tspan x="6.5" y="0">esou</tspan><tspan class="cls-5" x="30.47" y="0">r</tspan><tspan class="cls-6" x="34.27" y="0">c</tspan><tspan x="39.58" y="0">e </tspan><tspan class="cls-7" x="48.13" y="0">F</tspan><tspan x="53.66" y="0">il</tspan><tspan class="cls-6" x="59.3" y="0">t</tspan><tspan x="63.2" y="0">e</tspan><tspan class="cls-4" x="69.22" y="0">r</tspan><tspan x="73.19" y="0">ing</tspan></text></g></svg>